<svg width="75" height="75" viewBox="0 0 75 75" fill="none" xmlns="http://www.w3.org/2000/svg">
<path d="M65.3125 6.25H9.6875C8.77582 6.25 7.90148 6.61216 7.25682 7.25682C6.61216 7.90148 6.25 8.77582 6.25 9.6875V65.3125C6.25 66.2242 6.61216 67.0985 7.25682 67.7432C7.90148 68.3878 8.77582 68.75 9.6875 68.75H39.625V44.5312H31.5V35.1562H39.625V28.125C39.4567 26.4742 39.6516 24.8066 40.196 23.2392C40.7404 21.6717 41.6211 20.2423 42.7765 19.0513C43.9318 17.8602 45.3337 16.9364 46.8838 16.3445C48.434 15.7526 50.0949 15.507 51.75 15.625C54.1823 15.61 56.6134 15.7352 59.0312 16V24.4375H54.0625C50.125 24.4375 49.375 26.3125 49.375 29.0312V35.0625H58.75L57.5312 44.4375H49.375V68.75H65.3125C65.7639 68.75 66.2109 68.6611 66.628 68.4883C67.045 68.3156 67.424 68.0624 67.7432 67.7432C68.0624 67.424 68.3156 67.045 68.4883 66.628C68.6611 66.2109 68.75 65.7639 68.75 65.3125V9.6875C68.75 9.23608 68.6611 8.78908 68.4883 8.37203C68.3156 7.95497 68.0624 7.57602 67.7432 7.25682C67.424 6.93762 67.045 6.68441 66.628 6.51166C66.2109 6.33891 65.7639 6.25 65.3125 6.25Z" fill="#4CA772"/>
</svg>
