<svg width="75" height="75" viewBox="0 0 75 75" fill="none" xmlns="http://www.w3.org/2000/svg">
<path d="M40.7123 6.25C44.228 6.25937 46.0123 6.27813 47.553 6.32188L48.1592 6.34375C48.8592 6.36875 49.5498 6.4 50.3842 6.4375C53.7092 6.59375 55.978 7.11875 57.9686 7.89063C60.0311 8.68438 61.7686 9.75937 63.5061 11.4937C65.0951 13.0559 66.3247 14.9456 67.1092 17.0312C67.8811 19.0219 68.4061 21.2906 68.5624 24.6187C68.5999 25.45 68.6311 26.1406 68.6561 26.8437L68.6749 27.45C68.7217 28.9875 68.7405 30.7719 68.7467 34.2875L68.7499 36.6187V40.7125C68.7575 42.9919 68.7336 45.2713 68.678 47.55L68.6592 48.1562C68.6342 48.8594 68.603 49.55 68.5655 50.3812C68.4092 53.7094 67.878 55.975 67.1092 57.9687C66.327 60.0555 65.0971 61.9457 63.5061 63.5062C61.9435 65.0947 60.0539 66.3242 57.9686 67.1094C55.978 67.8812 53.7092 68.4062 50.3842 68.5625C49.6427 68.5974 48.901 68.6287 48.1592 68.6562L47.553 68.675C46.0123 68.7187 44.228 68.7406 40.7123 68.7469L38.3811 68.75H34.2905C32.01 68.7579 29.7296 68.7339 27.4499 68.6781L26.8436 68.6594C26.1018 68.6313 25.3601 68.599 24.6186 68.5625C21.2936 68.4062 19.0248 67.8812 17.0311 67.1094C14.9457 66.3262 13.0568 65.0964 11.4967 63.5062C9.90624 61.9446 8.67555 60.0549 7.89048 57.9687C7.1186 55.9781 6.5936 53.7094 6.43735 50.3812C6.40253 49.6397 6.37128 48.8981 6.3436 48.1562L6.32798 47.55C6.27039 45.2713 6.24434 42.9919 6.24985 40.7125V34.2875C6.24113 32.0081 6.26405 29.7287 6.3186 27.45L6.34048 26.8437C6.36548 26.1406 6.39673 25.45 6.43423 24.6187C6.59048 21.2906 7.11547 19.025 7.88735 17.0312C8.67208 14.9435 9.90523 13.0532 11.4999 11.4937C13.0595 9.90461 14.9472 8.67496 17.0311 7.89063C19.0248 7.11875 21.2905 6.59375 24.6186 6.4375C25.4498 6.4 26.1436 6.36875 26.8436 6.34375L27.4499 6.325C29.7286 6.26948 32.008 6.24552 34.2874 6.25312L40.7123 6.25ZM37.4998 21.875C33.3558 21.875 29.3816 23.5212 26.4513 26.4515C23.5211 29.3817 21.8748 33.356 21.8748 37.5C21.8748 41.644 23.5211 45.6183 26.4513 48.5485C29.3816 51.4788 33.3558 53.125 37.4998 53.125C41.6439 53.125 45.6181 51.4788 48.5484 48.5485C51.4786 45.6183 53.1248 41.644 53.1248 37.5C53.1248 33.356 51.4786 29.3817 48.5484 26.4515C45.6181 23.5212 41.6439 21.875 37.4998 21.875ZM37.4998 28.125C38.731 28.1248 39.9501 28.3671 41.0876 28.838C42.2251 29.309 43.2587 29.9994 44.1294 30.8698C45.0001 31.7402 45.6909 32.7735 46.1622 33.9109C46.6335 35.0482 46.8762 36.2673 46.8764 37.4984C46.8766 38.7296 46.6343 39.9487 46.1634 41.0862C45.6924 42.2237 45.002 43.2573 44.1316 44.128C43.2612 44.9987 42.2279 45.6894 41.0905 46.1608C39.9532 46.6321 38.7341 46.8748 37.503 46.875C35.0166 46.875 32.632 45.8873 30.8738 44.1291C29.1157 42.371 28.128 39.9864 28.128 37.5C28.128 35.0136 29.1157 32.629 30.8738 30.8709C32.632 29.1127 35.0166 28.125 37.503 28.125M53.9092 17.1875C52.8732 17.1875 51.8797 17.599 51.1471 18.3316C50.4145 19.0642 50.003 20.0577 50.003 21.0937C50.003 22.1298 50.4145 23.1233 51.1471 23.8559C51.8797 24.5884 52.8732 25 53.9092 25C54.9452 25 55.9388 24.5884 56.6714 23.8559C57.4039 23.1233 57.8155 22.1298 57.8155 21.0937C57.8155 20.0577 57.4039 19.0642 56.6714 18.3316C55.9388 17.599 54.9452 17.1875 53.9092 17.1875Z" fill="#4CA772"/>
</svg>
