<svg width="86" height="86" viewBox="0 0 86 86" fill="none" xmlns="http://www.w3.org/2000/svg">
<path d="M43.0003 41.2084C40.6244 41.2084 38.3458 40.2646 36.6658 38.5846C34.9858 36.9046 34.042 34.626 34.042 32.2501C34.042 29.8742 34.9858 27.5956 36.6658 25.9156C38.3458 24.2356 40.6244 23.2917 43.0003 23.2917C45.3762 23.2917 47.6548 24.2356 49.3348 25.9156C51.0148 27.5956 51.9587 29.8742 51.9587 32.2501C51.9587 33.4265 51.7269 34.5914 51.2767 35.6783C50.8266 36.7652 50.1667 37.7527 49.3348 38.5846C48.503 39.4164 47.5154 40.0763 46.4285 40.5265C45.3417 40.9767 44.1768 41.2084 43.0003 41.2084ZM43.0003 7.16675C36.3478 7.16675 29.9678 9.80945 25.2637 14.5135C20.5597 19.2175 17.917 25.5976 17.917 32.2501C17.917 51.0626 43.0003 78.8334 43.0003 78.8334C43.0003 78.8334 68.0837 51.0626 68.0837 32.2501C68.0837 25.5976 65.441 19.2175 60.7369 14.5135C56.0329 9.80945 49.6528 7.16675 43.0003 7.16675Z" fill="#4CA772"/>
</svg>
