<svg width="83" height="83" viewBox="0 0 83 83" fill="none" xmlns="http://www.w3.org/2000/svg">
<path d="M22.8942 37.3154C27.8742 47.1025 35.8975 55.0912 45.6846 60.1058L53.2929 52.4975C54.2267 51.5638 55.61 51.2525 56.8204 51.6675C60.6937 52.9471 64.8783 53.6387 69.1667 53.6387C71.0687 53.6387 72.625 55.195 72.625 57.0971V69.1667C72.625 71.0687 71.0687 72.625 69.1667 72.625C36.6929 72.625 10.375 46.3071 10.375 13.8333C10.375 11.9312 11.9312 10.375 13.8333 10.375H25.9375C27.8396 10.375 29.3958 11.9312 29.3958 13.8333C29.3958 18.1562 30.0875 22.3063 31.3671 26.1796C31.7475 27.39 31.4708 28.7388 30.5025 29.7071L22.8942 37.3154Z" fill="#4CA772"/>
</svg>
